<svg width="100" height="100" viewBox="0 0 100 100" fill="none" xmlns="http://www.w3.org/2000/svg">
<g clip-path="url(#clip0_18_744)">
<path d="M97.622 56.9277C96.5628 56.7309 95.5419 57.4303 95.3449 58.4908C91.2927 80.2803 72.2392 96.0938 50.0382 96.0938H50.0339C24.6175 96.0914 3.93765 75.4117 3.9353 49.9953C3.93413 37.6832 8.72768 26.1088 17.4328 17.4035C26.1373 8.69922 37.7089 3.90625 50.0203 3.90625H50.0248C55.007 3.90664 59.8726 4.68906 64.5322 6.23535C62.1125 8.58652 60.6185 11.9713 60.6185 15.7914C60.6185 28.9574 78.6869 37.7072 79.456 38.0732C79.7185 38.198 80.0052 38.2627 80.2953 38.2627C80.3148 38.2627 80.3345 38.2625 80.3542 38.2619L80.4332 38.2596C80.7046 38.2514 80.9714 38.1865 81.2164 38.0695C81.6289 37.8725 87.0394 35.2428 91.9435 30.8008C93.5064 34.2055 94.6449 37.7855 95.3353 41.474C95.5109 42.4129 96.3312 43.0682 97.2527 43.0682C97.3718 43.0682 97.4929 43.0572 97.6144 43.0344C98.6748 42.8359 99.3734 41.8154 99.1748 40.7553C98.3345 36.2666 96.8833 31.9262 94.8566 27.8359C97.7607 24.4775 99.971 20.4057 99.971 15.7914C99.971 8.52656 94.5677 2.83555 87.6699 2.83555C84.8959 2.83555 82.3789 3.73711 80.2943 5.46094C78.6052 4.0666 76.1884 2.83555 72.9197 2.83555C71.4224 2.83555 69.9957 3.10371 68.6793 3.59785C62.7496 1.21094 56.4763 0.000585938 50.0249 0H50.0201C36.6664 0 24.1124 5.1998 14.6707 14.6414C5.22768 24.0846 0.0278811 36.6402 0.0290529 49.9957C0.0302248 63.351 5.23237 75.9076 14.6769 85.3521C24.1214 94.7967 36.6781 99.9988 50.0335 100H50.0382C74.1185 100 94.7894 82.8426 99.1851 59.2051C99.3824 58.1445 98.6826 57.125 97.622 56.9277ZM78.8251 9.46543C79.1996 9.89316 79.7484 10.1322 80.3162 10.1248C80.8771 10.1207 81.415 9.86816 81.7824 9.44473C81.799 9.42754 81.8154 9.40996 81.8312 9.39199C83.4003 7.63359 85.3646 6.74199 87.6697 6.74199C92.3771 6.74199 96.0646 10.717 96.0646 15.7916C96.0646 25.118 83.6336 32.3717 80.3293 34.1346C77.0039 32.3727 64.5246 25.1357 64.5246 15.7916C64.5246 10.717 68.2121 6.74199 72.9197 6.74199C75.2568 6.74199 77.2437 7.6582 78.8251 9.46543Z" fill="#373737"/>
<path d="M99.4803 49.4941C99.1604 48.7265 98.3682 48.2334 97.5372 48.2935C96.7258 48.3521 96.026 48.9263 95.8008 49.706C95.5753 50.4871 95.8774 51.3582 96.5405 51.8293C97.1989 52.297 98.0883 52.3103 98.7616 51.8654C99.5319 51.3562 99.8282 50.3431 99.4803 49.4941Z" fill="#373737"/>
<path d="M62.2211 44.034L65.6098 40.6453L68.9983 44.034C69.761 44.7969 70.9973 44.7969 71.7606 44.034C72.5233 43.2713 72.5233 42.0346 71.7606 41.2719L66.9911 36.5022C66.6248 36.1357 66.128 35.9301 65.61 35.9301C65.092 35.9301 64.5954 36.1359 64.229 36.5022L59.4592 41.2719C58.6965 42.0346 58.6965 43.2713 59.4592 44.0342C59.8407 44.4156 60.3405 44.6063 60.8403 44.6063C61.3399 44.6059 61.8395 44.4152 62.2211 44.034Z" fill="#373737"/>
<path d="M30.9438 44.034L34.3324 40.6453L37.7211 44.034C38.1025 44.4154 38.6023 44.6061 39.1022 44.6061C39.602 44.6061 40.102 44.4154 40.4832 44.034C41.2459 43.2713 41.2459 42.0346 40.4832 41.2717L35.7135 36.502C34.9508 35.7393 33.7141 35.7393 32.9514 36.502L28.1816 41.2717C27.4189 42.0344 27.4189 43.2711 28.1816 44.034C28.9443 44.7967 30.1811 44.7967 30.9438 44.034Z" fill="#373737"/>
<path d="M20.7834 52.8131V55.1508C20.7834 58.0453 21.2063 60.9047 22.0407 63.6494C22.0456 63.6656 22.0508 63.6818 22.0561 63.6978C24.2792 70.967 29.1756 77.0037 35.8489 80.7C35.8504 80.701 35.8522 80.7019 35.8538 80.7027C40.1481 83.0812 45.0297 84.3383 49.9708 84.3383C54.9118 84.3383 59.7934 83.081 64.0877 80.7027C64.0885 80.7023 64.0893 80.7019 64.0899 80.7014C65.2731 80.0465 66.4229 79.3006 67.5083 78.4836C72.4141 74.79 76.0975 69.5408 77.8848 63.6986C77.8903 63.6822 77.8956 63.6658 77.9006 63.6492C78.735 60.9047 79.1581 58.0453 79.1581 55.1504V52.8127C79.1581 51.734 78.2836 50.8596 77.2049 50.8596H22.7366C21.6579 50.8599 20.7834 51.7344 20.7834 52.8131ZM49.9708 80.4324C46.4422 80.4324 42.9502 79.6932 39.7504 78.2805C42.3061 75.3439 45.9932 73.6426 49.9708 73.6426C53.5946 73.6426 57.0034 75.0545 59.5686 77.6178C59.7833 77.8324 59.9901 78.0537 60.1893 78.2812C56.9901 79.6933 53.4983 80.4324 49.9708 80.4324ZM65.159 75.3631C64.6834 75.7211 64.1936 76.0633 63.6928 76.3875C63.2704 75.8523 62.8153 75.3402 62.3301 74.8553C59.0268 71.5543 54.6374 69.7363 49.9706 69.7363C44.5495 69.7363 39.5473 72.1904 36.2485 76.3861C32.026 73.6432 28.6706 69.6475 26.6985 65.0357H73.243C71.5104 69.0916 68.703 72.6951 65.159 75.3631ZM24.6897 54.7662H75.2518V55.1508C75.2518 57.1764 75.0131 59.181 74.5413 61.1283H25.4002C24.9284 59.1808 24.6897 57.1762 24.6897 55.1508V54.7662Z" fill="#373737"/>
</g>
<defs>
<clipPath id="clip0_18_744">
<rect width="100" height="100" fill="white"/>
</clipPath>
</defs>
</svg>
