<?xml version="1.0" encoding="UTF-8" standalone="no"?>
<svg
   xmlns:dc="http://purl.org/dc/elements/1.1/"
   xmlns:cc="http://creativecommons.org/ns#"
   xmlns:rdf="http://www.w3.org/1999/02/22-rdf-syntax-ns#"
   xmlns:svg="http://www.w3.org/2000/svg"
   xmlns="http://www.w3.org/2000/svg"
   viewBox="0 0 2633.3333 3038.6667"
   height="3038.6667"
   width="2633.3333"
   xml:space="preserve"
   id="svg2"
   version="1.1"><metadata
     id="metadata8"><rdf:RDF><cc:Work
         rdf:about=""><dc:format>image/svg+xml</dc:format><dc:type
           rdf:resource="http://purl.org/dc/dcmitype/StillImage" /></cc:Work></rdf:RDF></metadata><defs
     id="defs6" /><g
     transform="matrix(1.3333333,0,0,-1.3333333,0,3038.6667)"
     id="g10"><g
       transform="scale(0.1)"
       id="g12"><g
         transform="scale(1.15881)"
         id="g14"><path
           id="path16"
           style="fill:#a7d4eb;fill-opacity:1;fill-rule:nonzero;stroke:none"
           d="M 9719.85,16025.8 V 16300 H 7308.37 v -274.2 h 2411.48" /></g><g
         transform="scale(1.1136)"
         id="g18"><path
           id="path20"
           style="fill:#a7d4eb;fill-opacity:1;fill-rule:nonzero;stroke:none"
           d="m 13159.5,2891.06 c -133.6,243.27 -285.7,338.01 -535.7,347.97 v 510.42 c 336.5,104.34 582.9,419.18 582.9,788.88 v 6927.07 c 0,369.7 -246.4,684.6 -582.9,788.9 v 684.7 c 202.7,23.2 523.9,143.5 540.8,380.1 52.2,732.2 -1251.3,2527.9 -3050.1,2715.7 V 16300 H 7605.07 v -250.9 c -2156.43,-72.7 -3133.24,-2246.7 -3046.32,-2742 58.11,-331.2 256.6,-369.7 536.96,-372.2 v -680.6 c -336.56,-104.3 -582.82,-419.2 -582.82,-788.9 V 4538.33 c 0,-369.7 246.26,-684.54 582.82,-788.88 v -513.56 c -172.46,-14.01 -400.67,-131.56 -498.35,-356.95 -174.5,-402.75 -14.96,-829.74 826.16,-829.74 h 6932.08 c 841.1,0 966.3,546.43 803.9,841.86" /></g><path
         id="path22"
         style="fill:#4f7ac6;fill-opacity:1;fill-rule:nonzero;stroke:none"
         d="m 13864.3,12615.1 c 0,0.1 -0.1,0.3 -0.2,0.4 0,0 -874.2,622.8 -1411.5,500.2 -188.8,-43 -364.7,-129.9 -550.1,-186 -246.9,-74.7 -510.6,-93.7 -765.7,-55.1 -461.4,69.7 -894.8,247.1 -1360.8,223.6 -484.13,-24.3 -941.1,-146.9 -1390.39,-328.9 -192.6,-78 -560.73,-133.5 -803.69,0.1 -168.87,92.8 -316.96,243.8 -507.6,271.9 -612.06,90.4 -1205.91,-359 -1205.91,-359 V 5053.9 c 0,-40.9 34.21,-66.8 55.77,-73.4 813.02,0 -6.1,-1821.9 799.5,-1844.4 3028.82,-84.6 3200.92,-13.1 6287.92,-13.1 756.8,0 214.7,1829.1 743.3,1852 51.8,2.3 109.2,38 109.2,78.9 v 7561.2 h 0.2" /><path
         id="path24"
         style="fill:#4666ba;fill-opacity:1;fill-rule:nonzero;stroke:none"
         d="m 13864.1,12615.5 c 0,0 -874.2,622.8 -1411.5,500.2 -188.8,-43 -364.7,-129.9 -550.1,-186 -123.2,-37.3 -250.7,-60.7 -379.2,-70 C 11406,10796.5 11082.3,8673.1 9876.28,6976.9 9427.36,6345.6 8856.2,5825.2 8211.05,5439.4 V 3102.8 c -323.21,4.9 -686.36,12.4 -1108.77,23.2 v 1808.2 c -272.75,-88.9 -552.47,-156.5 -836.71,-200.6 179.66,-498.3 -161.73,-1580.2 458.11,-1597.5 3028.82,-84.6 3200.92,-13.1 6287.92,-13.1 756.8,0 214.7,1829.1 743.3,1852 51.8,2.3 109.2,38 109.2,78.9 v 7561.2 h 0.2 c 0,0.1 -0.1,0.3 -0.2,0.4" /><g
         transform="scale(1.02832)"
         id="g26"><path
           id="path28"
           style="fill:#bfe1f0;fill-opacity:1;fill-rule:nonzero;stroke:none"
           d="m 6906.7,16300 c -539.54,-504.3 -813.67,-1617.6 -813.67,-1617.6 -327.6,-1629.1 390.77,-957 813.67,-1139.6 V 16300" /></g><g
         transform="scale(1.05765)"
         id="g30"><path
           id="path32"
           style="fill:#bfe1f0;fill-opacity:1;fill-rule:nonzero;stroke:none"
           d="m 10016.2,16252.5 c -413.61,37.8 -1446.06,47.5 -2252.73,-53.1 v -3253.2 c 235.24,38.6 480.54,116.4 715.92,221 613.66,272.7 1551.21,-187.5 1755.71,0 204.5,187.5 341,3034.1 -218.9,3085.3" /></g><g
         transform="scale(1.09527)"
         id="g34"><path
           id="path36"
           style="fill:#e0f5f5;fill-opacity:1;fill-rule:nonzero;stroke:none"
           d="m 6922.42,11658.7 c 165.84,-91.2 395.52,-85.9 574.4,-47.6 V 16300 c -375.26,-40.2 -712.33,-144 -1012.32,-289.2 v -4109.7 c 161.77,-34.7 291.48,-161.9 437.92,-242.4" /></g><g
         transform="scale(1.09225)"
         id="g38"><path
           id="path40"
           style="fill:#7db1dd;fill-opacity:1;fill-rule:nonzero;stroke:none"
           d="m 13416.8,2947.58 c -136.2,248.02 -291.3,344.61 -546.2,354.77 v 520.4 c 343.1,106.38 594.3,427.37 594.3,804.3 v 7062.45 c 0,377 -251.2,698 -594.3,804.4 v 698.1 c 206.6,23.6 534.1,146.2 551.3,387.5 50.3,704.5 -1130.8,2373.7 -2805.3,2720.5 8.6,-1063.3 17,-2126.7 -13.4,-3189.7 -12.5,-438.4 -27.5,-886 -53.2,-1336.7 117.7,8.5 234.4,29.9 347.2,64.1 169.8,51.3 330.8,130.8 503.7,170.3 491.9,112.2 1292.2,-458 1292.2,-458 0.1,-0.1 0.2,-0.3 0.2,-0.4 h -0.2 V 4627.05 c 0,-37.45 -52.5,-70.13 -99.9,-72.24 -484,-20.96 12.3,-1695.58 -680.6,-1695.58 -2826.23,0 -2983.79,-65.46 -5756.8,12 -567.99,15.93 -254.36,1008.1 -419.84,1463.76 -349.31,-54.11 -705.76,-70.49 -1063.57,-45.41 97.93,-221.83 288.95,-394.32 522.94,-466.83 v -523.6 c -175.83,-14.28 -408.5,-134.13 -508.09,-363.93 -177.91,-410.62 -15.26,-845.96 842.31,-845.96 h 7067.55 c 857.6,0 985.2,557.11 819.7,858.32" /></g><g
         transform="scale(1.13932)"
         id="g42"><path
           id="path44"
           style="fill:#4f7ac6;fill-opacity:1;fill-rule:nonzero;stroke:none"
           d="M 9915.82,15932.1 H 7421.53 c -101.17,0 -183.95,82.8 -183.95,183.9 v 0 c 0,101.2 82.78,184 183.95,184 h 2494.29 c 101.18,0 183.98,-82.8 183.98,-184 v 0 c 0,-101.1 -82.8,-183.9 -183.98,-183.9" /></g><g
         transform="scale(1.25836)"
         id="g46"><path
           id="path48"
           style="fill:#4f7ac6;fill-opacity:1;fill-rule:nonzero;stroke:none"
           d="m 9128.24,15010.6 v 974.5 c 0,173.2 -147.41,314.9 -327.57,314.9 H 6896.64 c -180.18,0 -327.61,-141.7 -327.61,-314.9 v -974.5 h 2559.21" /></g><path
         id="path50"
         style="fill:#2c448c;fill-opacity:1;fill-rule:nonzero;stroke:none"
         d="m 9874.17,4082.6 c -630,0 -1208.33,-19.4 -1663.12,-51.9 v -364.9 c 454.79,-32.4 1033.12,-51.9 1663.12,-51.9 1463.63,0 2650.23,104.9 2650.23,234.4 0,129.4 -1186.6,234.3 -2650.23,234.3" /><path
         id="path52"
         style="fill:#5c93d4;fill-opacity:1;fill-rule:nonzero;stroke:none"
         d="m 7581.92,12769.4 c -160.4,88.2 -302.48,227.5 -479.64,265.5 V 3126 c 422.41,-10.8 785.56,-18.3 1108.77,-23.2 v 9614.5 c -195.92,-41.9 -447.49,-47.8 -629.13,52.1" /><path
         id="path54"
         style="fill:#7ca5dd;fill-opacity:1;fill-rule:nonzero;stroke:none"
         d="m 9129.85,11464.8 c -31.96,-171.9 -275.83,-335 -432.23,-209.6 -226.75,181.8 0.31,521.6 258.94,447.7 149.39,-42.7 191.55,-139.7 173.29,-238.1" /><path
         id="path56"
         style="fill:#7ca5dd;fill-opacity:1;fill-rule:nonzero;stroke:none"
         d="m 9452.69,10647.3 c -19.4,-104.3 -167.43,-203.3 -262.35,-127.2 -137.64,110.3 0.18,316.6 157.16,271.7 90.68,-25.9 116.28,-84.8 105.19,-144.5" /><path
         id="path58"
         style="fill:#7ca5dd;fill-opacity:1;fill-rule:nonzero;stroke:none"
         d="m 6584.43,11897.7 c -19.4,-104.4 -167.42,-203.4 -262.35,-127.3 -137.64,110.4 0.18,316.6 157.16,271.8 90.68,-25.9 116.27,-84.8 105.19,-144.5" /><path
         id="path60"
         style="fill:#7ca5dd;fill-opacity:1;fill-rule:nonzero;stroke:none"
         d="m 6620.67,9560.1 c -19.4,-104.4 -167.42,-203.4 -262.35,-127.3 -137.64,110.3 0.18,316.6 157.16,271.7 90.68,-25.9 116.27,-84.7 105.19,-144.4" /><path
         id="path62"
         style="fill:#7ca5dd;fill-opacity:1;fill-rule:nonzero;stroke:none"
         d="m 7975.51,10342.4 c -19.39,-104.3 -167.42,-203.3 -262.35,-127.2 -137.63,110.3 0.19,316.5 157.17,271.7 90.67,-25.9 116.27,-84.8 105.18,-144.5" /><path
         id="path64"
         style="fill:#7ca5dd;fill-opacity:1;fill-rule:nonzero;stroke:none"
         d="m 10174.5,8984.5 c -43.8,-235.4 -377.74,-458.8 -591.92,-287.1 -310.53,248.9 0.41,714.3 354.59,613.1 204.63,-58.5 262.33,-191.3 237.33,-326" /><path
         id="path66"
         style="fill:#2c3f74;fill-opacity:1;fill-rule:nonzero;stroke:none"
         d="m 12675.2,8984.5 c -43.7,-235.4 -377.7,-458.8 -591.9,-287.1 -310.5,248.9 0.4,714.3 354.6,613.1 204.6,-58.5 262.3,-191.3 237.3,-326" /><path
         id="path68"
         style="fill:#2c3f74;fill-opacity:1;fill-rule:nonzero;stroke:none"
         d="m 12057.4,11060.9 c -194,8.7 -411,251.7 -297.2,443 164.9,277.4 573.6,80.1 532.2,-215.7 -23.9,-170.9 -124,-232.2 -235,-227.3" /><path
         id="path70"
         style="fill:#2c3f74;fill-opacity:1;fill-rule:nonzero;stroke:none"
         d="m 12740.1,10523.1 c 36.2,124.9 228.5,228 335.2,123.8 154.6,-150.9 -38.1,-386 -224.1,-312.6 -107.5,42.5 -131.7,117.3 -111.1,188.8" /><path
         id="path72"
         style="fill:#2c3f74;fill-opacity:1;fill-rule:nonzero;stroke:none"
         d="m 12778.2,7357.4 c 36.1,125 228.5,228 335.1,123.9 154.7,-151 -38,-386.1 -224.1,-312.6 -107.4,42.4 -131.6,117.2 -111,188.7" /><path
         id="path74"
         style="fill:#2c3f74;fill-opacity:1;fill-rule:nonzero;stroke:none"
         d="m 10352.8,6544.9 c 79.4,274.9 502.7,501.6 737.4,272.5 340.3,-332.2 -83.7,-849.5 -493.1,-687.9 -236.5,93.4 -289.8,258.1 -244.3,415.4" /><g
         transform="scale(1.24973)"
         id="g76"><path
           id="path78"
           style="fill:#72a1db;fill-opacity:1;fill-rule:nonzero;stroke:none"
           d="m 7822.82,16298.5 c -202.88,-2 -352.6,-0.5 -781.81,0 -398.68,0.4 -320.95,-513 -308.63,-704.9 5.79,-90.3 66.85,-135.5 140.82,-149.9 v 639.8 c 0,48.1 39.36,87.4 87.48,87.4 48.11,0 87.46,-39.3 87.46,-87.4 v -623.7 c 59.21,21.8 104.15,58.2 107.45,101.2 12.99,168.8 -23.19,258.7 16.85,363.9 12.1,31.8 40.41,52.9 79.8,67.1 v 91.5 c 0,48.1 39.37,87.4 87.48,87.4 48.11,0 87.47,-39.3 87.47,-87.4 v -64.8 c 63.25,2.9 133.01,2.7 204.1,3.4 v 61.4 c 0,48.1 39.36,87.4 87.47,87.4 48.11,0 87.47,-39.3 87.47,-87.4 v -55.3 c 1.12,0.1 2.26,0.2 3.39,0.3 225.48,17.7 173.43,271.5 13.2,270" /></g><g
         transform="scale(1.23983)"
         id="g80"><path
           id="path82"
           style="fill:#2c448c;fill-opacity:1;fill-rule:nonzero;stroke:none"
           d="m 7016.24,15478.4 v 0 c -48.5,0 -88.17,39.7 -88.17,88.2 v 645.2 c 0,48.5 39.67,88.2 88.17,88.2 v 0 c 48.49,0 88.17,-39.7 88.17,-88.2 v -645.2 c 0,-48.5 -39.68,-88.2 -88.17,-88.2" /></g><g
         transform="scale(1.23983)"
         id="g84"><path
           id="path86"
           style="fill:#2c448c;fill-opacity:1;fill-rule:nonzero;stroke:none"
           d="m 7398.31,15478.4 v 0 c -48.5,0 -88.18,39.7 -88.18,88.2 v 645.2 c 0,48.5 39.68,88.2 88.18,88.2 v 0 c 48.49,0 88.16,-39.7 88.16,-88.2 v -645.2 c 0,-48.5 -39.67,-88.2 -88.16,-88.2" /></g><g
         transform="scale(1.23983)"
         id="g88"><path
           id="path90"
           style="fill:#2c448c;fill-opacity:1;fill-rule:nonzero;stroke:none"
           d="m 7780.37,15478.4 v 0 c -48.49,0 -88.17,39.7 -88.17,88.2 v 645.2 c 0,48.5 39.68,88.2 88.17,88.2 v 0 c 48.49,0 88.17,-39.7 88.17,-88.2 v -645.2 c 0,-48.5 -39.68,-88.2 -88.17,-88.2" /></g><g
         transform="scale(1.23983)"
         id="g92"><path
           id="path94"
           style="fill:#2c448c;fill-opacity:1;fill-rule:nonzero;stroke:none"
           d="m 8162.39,15478.4 v 0 c -48.47,0 -88.15,39.7 -88.15,88.2 v 645.2 c 0,48.5 39.68,88.2 88.15,88.2 v 0 c 48.56,0 88.24,-39.7 88.24,-88.2 v -645.2 c 0,-48.5 -39.68,-88.2 -88.24,-88.2" /></g><g
         transform="scale(1.23983)"
         id="g96"><path
           id="path98"
           style="fill:#2c448c;fill-opacity:1;fill-rule:nonzero;stroke:none"
           d="m 8544.46,15478.4 v 0 c -48.47,0 -88.16,39.7 -88.16,88.2 v 645.2 c 0,48.5 39.69,88.2 88.16,88.2 v 0 c 48.56,0 88.24,-39.7 88.24,-88.2 v -645.2 c 0,-48.5 -39.68,-88.2 -88.24,-88.2" /></g><g
         transform="scale(1.23983)"
         id="g100"><path
           id="path102"
           style="fill:#2c448c;fill-opacity:1;fill-rule:nonzero;stroke:none"
           d="m 8926.53,15478.4 v 0 c -48.48,0 -88.16,39.7 -88.16,88.2 v 645.2 c 0,48.5 39.68,88.2 88.16,88.2 v 0 c 48.55,0 88.24,-39.7 88.24,-88.2 v -645.2 c 0,-48.5 -39.69,-88.2 -88.24,-88.2" /></g></g></g></svg>