<svg width="101" height="101" viewBox="0 0 101 101" fill="none" xmlns="http://www.w3.org/2000/svg">
<path fill-rule="evenodd" clip-rule="evenodd" d="M57.6077 90.9552C55.2193 91.4154 52.9785 91.6454 51.8506 91.4529C43.0348 91.4529 35.9422 89.5397 29.3447 85.7183C28.4069 85.143 27.6991 84.953 26.8013 85.2956C22.2896 86.406 17.8917 87.5915 13.4173 88.7394C12.498 89.0445 12.4032 88.892 12.6133 87.9341C13.7992 83.8051 14.9081 79.5985 16.2084 75.3169C16.4957 74.169 16.4184 73.3262 15.6917 72.3708C6.64832 57.6854 7.0497 39.5211 17.1647 25.9061C27.6991 11.8334 42.1745 5.98121 59.3659 9.65257C76.3247 13.2089 87.1887 24.2604 91.0501 41.1267C96.5372 64.2253 80.9339 87.1713 57.6077 90.9552ZM99.2532 38.7558C93.8236 15.9999 74.2214 0.549186 50.5876 0.206559C47.4715 0.321601 44.1077 0.589196 41.0466 1.20192C7.90927 7.81688 -9.1468 44.4154 6.87764 73.9014C7.45035 74.7017 7.45035 75.4695 7.33606 76.3473C5.00295 83.9576 2.86266 91.8355 0.796389 99.5234C0.451511 100.899 0.451511 100.899 1.73424 100.516C9.82224 98.3379 17.834 96.2722 25.9035 94.2839C26.6112 94.0539 27.1064 94.0538 27.6991 94.399C38.063 99.6759 49.002 101.089 60.4738 98.9882C87.8389 93.7087 105.793 65.8309 99.2532 38.7558Z" fill="white"/>
<path fill-rule="evenodd" clip-rule="evenodd" d="M63.6499 73.9014C61.9067 74.0539 60.1486 73.7088 58.468 73.1736C47.0512 69.8449 38.408 62.8473 31.4654 53.3638C28.887 49.845 26.4186 46.0585 25.6733 41.6219C24.6229 36.4224 26.246 31.8333 30.1649 28.277C31.4654 27.054 35.2718 26.4788 36.8224 27.244C37.3176 27.7017 37.6052 28.1244 37.9303 28.622C39.3459 32.1384 40.8564 35.4271 42.2894 38.8309C42.4995 39.5211 42.462 40.2088 42.0794 40.9341C41.3141 42.4647 40.1487 43.7652 39.0207 45.0282C38.0629 45.8685 38.0629 46.8238 38.7131 47.7792C42.8071 54.6267 48.3317 59.521 55.7494 62.3896C56.8223 62.8473 57.6451 62.6947 58.3154 61.8169C59.5959 60.3613 60.8563 58.7557 62.0443 57.1876C62.767 56.1948 63.7424 56.0397 64.8153 56.4599C67.2637 57.6078 69.6721 58.7557 72.0055 59.8261C72.6557 60.1337 73.1134 60.4014 73.6861 60.5914C76.152 61.8169 76.152 62.0069 75.8669 64.6454C75.5418 69.8449 71.5428 72.4858 66.9736 73.7863C65.7331 74.0539 64.7378 74.0539 63.6499 73.9014Z" fill="white"/>
</svg>
